<svg width="125" height="76" viewBox="0 0 125 76" fill="none" xmlns="http://www.w3.org/2000/svg">
<rect y="0.5" width="125" height="75" rx="37.5" fill="#FFD0D0"/>
<path d="M54.738 29.7869L52.4833 24.1978L52.5454 15.1502C52.5454 15.1502 58.6185 14.24 61.8081 13.8015C64.9977 13.363 71.3398 10.6905 77.1233 13.2513C83.6929 16.1596 87.1762 22.8905 85.4221 33.1503C83.668 43.41 75.9774 51.713 69.052 52.6066C65.6224 53.0493 65.0102 51.7171 62.3832 51.9075C60.2567 52.0605 60.3726 53.1651 56.7444 52.9789C53.1163 52.7928 50.0383 51.4441 48.2263 49.1936C46.4143 46.943 54.738 29.7869 54.738 29.7869Z" fill="#DC0D28"/>
<path d="M44.7265 16.9001C39.5263 21.2439 37.073 30.3991 41.2224 40.1707C44.9126 48.8667 50.8079 51.353 50.8079 51.353C50.8079 51.353 61.1173 50.6787 68.3115 46.7982C75.5058 42.9177 82.4518 36.162 82.4518 27.2798C82.4518 18.3977 77.8225 15.3942 77.3219 15.2701C76.8213 15.146 74.757 16.4574 72.4403 16.5195C70.1235 16.5815 68.3115 16.0189 68.3115 16.0189L60.9932 18.4597L54.1506 16.8628C54.1506 16.8628 53.9313 15.9072 54.6718 15.5183C56.2108 14.7157 59.4252 16.081 60.7408 16.0189C62.0564 15.9568 63.1816 14.2028 63.1816 14.2028C63.1816 14.2028 60.1161 13.8883 59.0529 13.6401C57.9897 13.4002 50.7955 11.8323 44.7265 16.9001Z" fill="#FF5117"/>
<path d="M61.6054 16.954C59.7106 17.0408 54.6304 15.2578 54.1712 16.652C53.683 18.133 57.4642 20.0981 62.0687 19.7754C66.8718 19.4403 69.8628 16.7843 69.1016 15.3529C68.3446 13.9215 65.2294 16.7843 61.6054 16.954Z" fill="#8D1D0A"/>
<path d="M57.0588 8.61367C57.0588 8.61367 56.2604 8.5723 55.8384 8.40268C55.4164 8.23306 54.8207 8.24548 54.8703 7.51736C54.9531 6.29695 56.5169 5.04343 56.8933 4.82004C57.609 4.39806 58.8626 4.5139 59.3383 4.82004C59.9299 5.20064 59.632 6.59067 59.632 6.59067C59.632 6.59067 61.7378 9.75134 62.0315 11.6875C62.3004 13.454 63.4008 18.6087 61.7378 18.9314C60.2195 19.2251 60.8524 15.266 60.0126 13.3299C59.5079 12.1715 58.7922 10.9304 58.1179 10.0864C57.736 9.61691 57.3824 9.12512 57.0588 8.61367Z" fill="#513630"/>
<path d="M79.5518 3.68655C79.7214 3.39282 79.3822 3.09496 77.9921 3.05359C76.6021 3.01222 69.019 2.29652 64.7248 7.64566C61.6386 11.4889 62.1143 14.7654 62.1143 14.7654L64.9357 14.8937L79.5518 3.68655Z" fill="#2F7C31"/>
<path d="M70.2393 8.94879C72.7918 7.18643 79.5889 3.34729 79.5889 3.34729C79.5889 3.34729 79.5889 4.31535 79.1669 5.1593C78.7449 6.00325 77.3135 10.1733 71.5011 13.2058C66.0443 16.052 62.4038 15.3529 62.1059 14.8482C61.8163 14.3434 66.0278 11.8571 70.2393 8.94879Z" fill="#709F19"/>
<path d="M51.4987 18.133C50.3693 16.5072 47.6347 16.9664 45.1815 20.2387C42.0208 24.4502 42.1904 30.0517 44.3375 30.3909C46.4681 30.726 44.5899 28.5789 47.8746 24.3261C50.3899 21.0703 52.9301 20.1974 51.4987 18.133Z" fill="#FFD2B1"/>
</svg>
