<svg width="125" height="76" viewBox="0 0 125 76" fill="none" xmlns="http://www.w3.org/2000/svg">
<rect y="0.5" width="125" height="75" rx="37.5" fill="#FFEDD0"/>
<path d="M53.6348 23.9581C53.6348 23.9581 53.648 24.1415 53.652 24.4759L53.6536 24.6085C53.6539 24.6555 53.6561 24.7021 53.6512 24.7615C53.641 24.8856 53.6307 25.0096 53.6204 25.1336C53.608 25.2669 53.5965 25.4169 53.5792 25.5669C53.5615 25.7141 53.5446 25.8724 53.5213 26.0379C53.4121 26.8379 53.2458 27.6291 53.0239 28.4054C52.7683 29.3073 52.4088 30.3107 51.9137 31.3676C51.4203 32.4252 50.7839 33.5299 50.0031 34.6349C49.9084 34.7759 49.8044 34.9098 49.702 35.0474L49.5468 35.2539L49.4687 35.3577L49.4491 35.3838C49.5107 35.3271 49.354 35.4758 49.3673 35.4643L49.3592 35.4752L49.3265 35.5186C49.1536 35.7513 48.9712 35.979 48.7908 36.2135L48.7738 36.2354L48.7498 36.2624L48.7014 36.3167L48.6042 36.4254L48.406 36.6412L48.0021 37.0749L47.9001 37.1835L47.8042 37.2817C47.7401 37.3477 47.6753 37.4128 47.6097 37.4772L47.2141 37.8681C46.1438 38.9049 44.9282 39.8705 43.6079 40.728C42.2692 41.5948 40.8504 42.3313 39.3711 42.9272C37.8907 43.5253 36.3571 43.9822 34.7908 44.2919C33.2424 44.5961 31.6922 44.7484 30.1957 44.7561C28.6988 44.7643 27.2571 44.6312 25.9174 44.3923C25.2469 44.2785 24.603 44.1231 23.9873 43.9633C23.3733 43.7885 22.7864 43.6125 22.2354 43.4031L21.8265 43.2538C21.6921 43.2042 21.5615 43.1449 21.4319 43.0918C21.1727 42.984 20.9215 42.8756 20.6788 42.7669C20.4369 42.6547 20.2044 42.5379 19.9798 42.4245L19.6487 42.2568C19.5403 42.2019 19.4364 42.1388 19.333 42.0816C18.9213 41.8467 18.5403 41.6288 18.2019 41.3979C17.8621 41.171 17.5527 40.9663 17.2856 40.7568L16.9075 40.4633L16.5808 40.1973C16.3814 40.0266 16.2171 39.874 16.0844 39.7509C15.8195 39.5047 15.6856 39.364 15.6856 39.364C14.4393 38.0545 14.4906 35.9827 15.8002 34.7364C16.3251 34.2352 17.0024 33.9236 17.7245 33.851L18.1171 33.8114C18.1171 33.8114 18.2817 33.7947 18.5763 33.7808C18.7236 33.7739 18.9043 33.7646 19.1106 33.7625L19.447 33.7428L19.821 33.7285C20.0805 33.726 20.3716 33.7007 20.678 33.6908C20.9834 33.6845 21.3162 33.6534 21.6605 33.6396C22.0054 33.6243 22.3723 33.5861 22.7475 33.5685C23.1279 33.5275 23.5169 33.5101 23.9218 33.4627L24.2265 33.4324L24.3799 33.4198L24.5352 33.4006L24.8482 33.3623L25.1637 33.3303C25.3762 33.2993 25.5905 33.2691 25.8062 33.2447L25.9684 33.2247L26.1318 33.1977L26.4601 33.1498C27.3393 33.0166 28.245 32.8552 29.1633 32.6581C31.0001 32.2665 32.8873 31.7334 34.7282 31.0506C35.6475 30.7086 36.5543 30.334 37.447 29.9276C38.3375 29.5245 39.2045 29.0883 40.0492 28.6398L40.3617 28.4671C40.4137 28.4382 40.466 28.4099 40.5192 28.3826L40.5985 28.3414L40.6663 28.3048L40.9369 28.1602L41.0734 28.089L41.1429 28.0548L41.1777 28.0378L41.1952 28.0291L41.2184 28.014C41.4665 27.8528 41.7079 27.689 41.9538 27.5352L41.9996 27.5062L42.0111 27.4989C42.031 27.4814 41.8806 27.624 41.9486 27.561L41.967 27.5497L42.0406 27.5044L42.1878 27.4143L42.4805 27.2344C43.2541 26.7521 43.9966 26.2673 44.6841 25.7869C45.3281 25.338 45.9635 24.8768 46.5899 24.4036C47.1685 23.9696 47.6787 23.5662 48.1106 23.2265C48.2166 23.1406 48.3221 23.0609 48.4195 22.9841C48.5155 22.9093 48.604 22.8453 48.6881 22.7813L48.9223 22.6049C48.9588 22.5809 48.9967 22.5462 49.0321 22.5163L49.1328 22.43C49.3868 22.2124 49.5333 22.1013 49.5333 22.1013C50.6607 21.2469 52.2672 21.4682 53.1216 22.5955C53.422 22.9899 53.6004 23.4636 53.6348 23.9581Z" fill="#FFAE2C"/>
<path d="M16.8305 36.7493C16.4294 37.6649 16.0744 37.7861 15.1325 37.3736C14.1904 36.9611 14.0387 36.618 14.4396 35.7024C14.8406 34.7867 17.2315 35.8336 16.8305 36.7493Z" fill="#B28E7F"/>
<path d="M55.7056 25.1346C55.7056 25.1346 55.7495 25.3374 55.8072 25.7105L55.83 25.8585C55.8378 25.9109 55.8477 25.9626 55.8517 26.0298L55.8764 26.4504C55.8838 26.6013 55.8948 26.7708 55.8993 26.9411C55.9029 27.1084 55.9091 27.288 55.9094 27.4766C55.9146 28.3879 55.8546 29.2984 55.73 30.2012C55.5878 31.2497 55.3456 32.428 54.9604 33.6877C54.5772 34.9479 54.0417 36.2836 53.3449 37.6423C53.2615 37.8148 53.1666 37.9811 53.074 38.1511L52.9335 38.4066L52.8627 38.535L52.8449 38.5672C52.9047 38.494 52.7532 38.6851 52.7662 38.6702L52.7589 38.6836L52.7294 38.7373C52.5732 39.0248 52.4055 39.3082 52.2412 39.5989L52.2257 39.6261L52.2032 39.6601L52.1577 39.7283L52.0665 39.8653L51.8793 40.1379L51.497 40.6867L51.4002 40.8242L51.3086 40.9492C51.2478 41.033 51.1855 41.1158 51.1225 41.1985L50.7425 41.6981C49.7114 43.0268 48.5066 44.299 47.1676 45.4671C45.8095 46.6485 44.3412 47.697 42.7829 48.598C41.2238 49.5016 39.5828 50.256 37.8819 50.8511C36.2 51.4372 34.492 51.8539 32.821 52.1003C31.1497 52.3475 29.5175 52.4279 27.9825 52.3739C27.2152 52.3532 26.471 52.2821 25.7576 52.2014C25.0437 52.1036 24.3599 52.0002 23.7109 51.8539L23.2303 51.7521C23.0723 51.7181 22.917 51.6726 22.7636 51.6338C22.4648 51.5567 22.1671 51.4756 21.8705 51.3905C21.5824 51.3036 21.304 51.2101 21.0349 51.119L20.6383 50.9842C20.5084 50.9401 20.3823 50.8861 20.2577 50.8387C20.0175 50.745 19.7784 50.6484 19.5406 50.5489C19.3105 50.4586 19.0933 50.3523 18.8851 50.2545C18.4693 50.0551 18.0911 49.8754 17.7593 49.6837C17.464 49.5184 17.1716 49.3481 16.8821 49.1728C16.6715 49.0355 16.4632 48.8948 16.2571 48.7507C15.9219 48.5176 15.7499 48.3818 15.7499 48.3818C14.1492 47.1166 13.8772 44.7934 15.1423 43.1926C15.6492 42.5492 16.3564 42.0933 17.1518 41.8974L17.5842 41.7906C17.5842 41.7906 17.7654 41.7458 18.0924 41.6835C18.2558 41.6525 18.4562 41.6136 18.687 41.5758C18.9199 41.5287 19.1842 41.4782 19.4749 41.4271C19.7645 41.3831 20.0858 41.3085 20.4266 41.2488C20.7668 41.1932 21.1337 41.1056 21.5163 41.0353C21.8993 40.9634 22.3032 40.8624 22.7197 40.7832C22.9315 40.7307 23.1441 40.6814 23.3574 40.6353C23.5732 40.5899 23.7927 40.5322 24.015 40.4782L24.3507 40.3959L24.5201 40.3575L24.6905 40.3114L25.0341 40.2188L25.3816 40.1329L25.732 40.0308C25.9093 39.9827 26.0866 39.9347 26.2639 39.8868L26.4422 39.8307C26.5613 39.7937 26.6813 39.7603 26.8015 39.7249C27.7626 39.4363 28.7491 39.1119 29.7438 38.7457C31.7341 38.0161 33.758 37.1205 35.7064 36.0647C36.6793 35.5365 37.6331 34.9737 38.5659 34.3776C39.4968 33.7857 40.3964 33.1604 41.2689 32.5249L41.5907 32.2822C41.6442 32.2415 41.6983 32.2017 41.7531 32.1628L41.8352 32.1041L41.9052 32.0524L42.1846 31.8478L42.3258 31.7465L42.3981 31.6972L42.4343 31.6726L42.4525 31.6602L42.476 31.6395C42.7277 31.42 42.9714 31.1986 43.2216 30.9876L43.2682 30.9478L43.2798 30.9379C43.2993 30.9152 43.154 31.0983 43.2198 31.0172L43.2386 31.0017L43.3137 30.9395L43.4638 30.8154L43.7622 30.5679C44.55 29.906 45.3026 29.2463 45.9945 28.6002C46.6427 27.9962 47.2793 27.3799 47.9041 26.7516C48.4816 26.1746 48.9876 25.6429 49.4162 25.1946C49.521 25.0817 49.6262 24.9758 49.7229 24.8745C49.8183 24.7756 49.907 24.6902 49.9907 24.6053L50.2244 24.3709C50.2613 24.3383 50.2982 24.2935 50.3329 24.2543L50.4317 24.1419C50.681 23.8584 50.8271 23.711 50.8271 23.711C51.9509 22.577 53.7812 22.5688 54.9152 23.6926C55.3136 24.086 55.5883 24.5872 55.7056 25.1346Z" fill="#FFB93E"/>
<path d="M16.6137 45.2783C16.3112 46.3652 13.4732 45.5754 13.7757 44.4885C14.0782 43.4016 14.4557 43.2098 15.5739 43.521C16.6921 43.8321 16.9162 44.1913 16.6137 45.2783Z" fill="#A07562"/>
<path d="M54.0838 16.1491C53.9705 16.118 53.852 16.1104 53.7356 16.1268C53.6147 16.0232 53.4793 15.938 53.3336 15.8739C52.7482 15.6176 52.1119 16.1835 51.7881 16.5383C50.8027 17.6176 53.0202 19.0334 51.4445 21.6405C51.2224 22.0079 51.4118 22.954 51.7507 23.1024C52.133 23.2698 52.5835 23.1478 52.9183 22.8232C52.9087 22.8465 52.8997 22.8696 52.8897 22.8931C52.6999 23.3388 53.062 24.3659 53.4643 24.4778C54.0617 24.6441 54.7122 24.2322 54.9763 23.5273C55.719 21.545 56.5124 16.825 54.0838 16.1491Z" fill="#8E6049"/>
<path d="M59.2242 23.6937C59.2242 23.6937 59.3251 23.8679 59.4916 24.1965L59.5576 24.3269C59.5807 24.3734 59.6053 24.4173 59.6303 24.4819L59.7852 24.8804C59.8395 25.0236 59.9029 25.1841 59.9606 25.3459C60.0162 25.5046 60.0779 25.6739 60.1376 25.8539C60.4285 26.7227 60.6602 27.6101 60.8312 28.5102C61.0322 29.5554 61.1838 30.756 61.2311 32.0801C61.2805 33.4041 61.2148 34.8493 61.0094 36.3698C60.9879 36.561 60.954 36.7504 60.9233 36.9425L60.876 37.2315L60.852 37.3768L60.846 37.4133C60.8765 37.3186 60.8009 37.5629 60.8079 37.543L60.8053 37.5579L60.7952 37.618C60.7427 37.9391 60.6791 38.2607 60.6206 38.5876L60.615 38.6183L60.6052 38.6582L60.5854 38.7385L60.5454 38.8994C60.5174 39.0069 60.4892 39.1143 60.4611 39.2218L60.2866 39.8721L60.2419 40.0352L60.1977 40.1842C60.1684 40.2841 60.138 40.3837 60.1065 40.4829L59.9178 41.0836C59.3921 42.6861 58.6972 44.2983 57.8417 45.8586C56.9733 47.4363 55.9595 48.9295 54.8135 50.3187C53.6645 51.717 52.3812 53.0034 51.0178 54.1441C49.6546 55.2854 48.211 56.281 46.7425 57.1064C45.2743 57.9329 43.7856 58.5933 42.3405 59.0974C41.6205 59.3552 40.9039 59.5585 40.213 59.7431C39.5153 59.9116 38.8439 60.0651 38.1893 60.1669L37.707 60.2484C37.5482 60.2749 37.3878 60.2897 37.2316 60.3101C36.9185 60.3492 36.6131 60.3836 36.3158 60.4132C36.0174 60.4386 35.7256 60.4549 35.4434 60.4702L35.0271 60.4922C34.8907 60.4996 34.7543 60.4964 34.6217 60.4988C34.0895 60.501 33.5966 60.5037 33.138 60.4701C32.6803 60.4412 32.2646 60.4176 31.8875 60.3656L31.3553 60.2956L30.8885 60.2242C30.5989 60.1723 30.3537 60.1189 30.1558 60.0758C29.7601 59.9895 29.5511 59.9315 29.5511 59.9315C27.6057 59.3919 26.4661 57.3773 27.0058 55.432C27.2399 54.5833 27.7735 53.8481 28.5079 53.3626L28.8687 53.1241C28.8687 53.1241 29.0219 53.0229 29.3053 52.8554C29.4469 52.7717 29.6204 52.6683 29.8232 52.5575L30.145 52.3612L30.5072 52.1495C30.7626 52.0097 31.0368 51.8301 31.3349 51.6569C31.634 51.4879 31.9465 51.279 32.2803 51.0802C32.6138 50.8797 32.9566 50.6441 33.3191 50.4232C33.6737 50.1766 34.0498 49.9477 34.4251 49.6793L34.7105 49.4828L34.8556 49.3862L34.9988 49.282L35.2878 49.0723L35.5827 48.8666L35.8745 48.645L36.1716 48.427L36.3211 48.3174L36.468 48.2003L36.7662 47.9705C37.562 47.3502 38.3666 46.6832 39.1602 45.9707C39.9537 45.2583 40.7397 44.5048 41.4981 43.7097C42.2569 42.9152 42.9875 42.0793 43.6848 41.2182C45.0755 39.4923 46.3225 37.6562 47.3927 35.8185L47.5886 35.4729C47.621 35.4154 47.654 35.3581 47.6885 35.3016L47.7395 35.2165L47.7816 35.1427L47.9502 34.8508L48.0362 34.7057L48.0811 34.6337L48.1036 34.5977L48.1149 34.5796L48.1282 34.5515C48.272 34.252 48.4086 33.9541 48.5539 33.663L48.5809 33.6083L48.5876 33.5947C48.5977 33.5652 48.525 33.7999 48.5582 33.6956L48.5689 33.6742L48.6117 33.5889L48.6974 33.4188L48.8675 33.0802C49.3123 32.179 49.7228 31.2974 50.0822 30.4549C50.418 29.6701 50.7382 28.8787 51.0427 28.0812C51.3246 27.3506 51.5596 26.6899 51.759 26.1339C51.8066 25.9951 51.857 25.8624 51.9019 25.7371C51.9465 25.615 51.9899 25.5098 52.0297 25.4056L52.1416 25.1179C52.161 25.0774 52.1758 25.0217 52.1907 24.973L52.233 24.8331C52.3398 24.4805 52.4088 24.2914 52.4088 24.2914C53.1245 22.3321 55.2929 21.3241 57.2521 22.0397C58.1154 22.3548 58.7963 22.9564 59.2242 23.6937Z" fill="#FFCE6C"/>
<path d="M58.5539 33.2073C58.5539 33.2073 58.6147 33.4897 58.6763 33.9782C58.6843 34.0393 58.693 34.1037 58.6999 34.171L58.7112 34.2743L58.7166 34.3897C58.7247 34.5474 58.7257 34.718 58.7303 34.9021C58.7326 35.085 58.7333 35.2844 58.7282 35.4883L58.6865 36.119C58.6584 36.5613 58.582 37.0311 58.4961 37.5311C58.4771 37.6569 58.4472 37.7809 58.4183 37.9071L58.3271 38.2898C58.2632 38.5474 58.2012 38.813 58.1128 39.0733C58.0288 39.3404 57.9414 39.6064 57.8507 39.8712C57.7504 40.136 57.641 40.401 57.5315 40.6688C57.4738 40.8012 57.4231 40.938 57.3583 41.068L57.1675 41.4612L56.972 41.8542C56.9084 41.9864 56.8366 42.1139 56.763 42.2404C56.6184 42.4945 56.4714 42.7472 56.3221 42.9985C56.1651 43.2417 56.005 43.4829 55.8416 43.7218C55.6846 43.9627 55.5101 44.1882 55.3383 44.4107C55.1643 44.6316 54.9994 44.8549 54.8189 45.0596C54.4589 45.4699 54.1105 45.864 53.7464 46.2058L53.481 46.4612C53.3931 46.5441 53.3089 46.6278 53.2186 46.7033C53.0389 46.8548 52.8702 47.0044 52.7005 47.1403C52.3703 47.4206 52.0433 47.6502 51.754 47.8512C51.6083 47.9507 51.4742 48.0453 51.3457 48.1273C51.2261 48.2007 51.1054 48.2722 50.9837 48.3421C50.8138 48.4411 50.6416 48.536 50.4672 48.6267C50.3461 48.6894 50.2801 48.7206 50.2801 48.7206C50.1289 48.7922 49.959 48.8142 49.7946 48.7835C49.6302 48.7528 49.4796 48.6709 49.3645 48.5496C49.2494 48.4282 49.1755 48.2737 49.1534 48.1079C49.1314 47.9421 49.1622 47.7735 49.2416 47.6263L49.2553 47.6013L49.3517 47.425C49.4158 47.3118 49.5104 47.147 49.6362 46.9459C49.6979 46.8441 49.7689 46.7346 49.8457 46.6157C49.9176 46.492 49.999 46.3626 50.0845 46.2236C50.256 45.9464 50.459 45.646 50.6629 45.3071C50.7649 45.1377 50.8794 44.9697 50.9929 44.7921C51.1036 44.6123 51.215 44.4254 51.3339 44.2377C51.5773 43.866 51.8094 43.4604 52.065 43.0554C52.1311 42.9556 52.1902 42.8502 52.2508 42.7448L52.4372 42.4294L52.629 42.1131C52.6941 42.0077 52.7511 41.897 52.814 41.7893C52.9355 41.5714 53.0648 41.3563 53.1904 41.1383C53.3092 40.916 53.4303 40.6951 53.5539 40.4756C53.6821 40.258 53.7893 40.0306 53.9086 39.8099C54.0254 39.5882 54.1493 39.3705 54.2542 39.1467C54.3642 38.9271 54.4762 38.7084 54.5901 38.4908C54.691 38.2733 54.795 38.0572 54.9021 37.8426C55.012 37.6317 55.1029 37.4185 55.1997 37.2114L55.3449 36.9043C55.3947 36.8053 55.4412 36.7048 55.4843 36.6028C55.569 36.4073 55.6561 36.2128 55.7456 36.0195C55.8399 35.8326 55.9102 35.6464 55.9864 35.4687L56.2132 34.9576C56.2855 34.7973 56.3415 34.6473 56.4054 34.504C56.4694 34.3615 56.5259 34.2262 56.5853 34.1012L56.6282 34.0089L56.6651 33.9117C56.6886 33.8483 56.7133 33.7882 56.7364 33.7311C56.9187 33.2736 57.0485 33.0155 57.0485 33.0155C57.1443 32.8249 57.312 32.6801 57.5146 32.6131C57.7171 32.5461 57.9381 32.5623 58.1287 32.6581C58.3538 32.771 58.5035 32.9793 58.5539 33.2073Z" fill="#FFDF95"/>
<path d="M29.2294 56.7262C29.3419 57.8489 29.0597 58.1646 27.9048 58.2804C26.75 58.3961 26.4108 58.1427 26.2982 57.0201C26.1857 55.8975 26.4679 55.5818 27.6227 55.466C28.7776 55.3502 29.1168 55.6036 29.2294 56.7262Z" fill="#8E6049"/>
<path d="M56.0209 23.972C56.6379 23.9102 57.0946 23.2903 57.0849 22.5375C57.0578 20.4209 58.6857 17.1341 56.4414 15.9861C53.7844 14.627 51.6956 16.4941 51.5734 17.0222C51.2018 18.6293 54.0368 18.8886 54.931 23.3843C55.0257 23.8594 55.6053 24.0136 56.0209 23.972Z" fill="#966C5A"/>
<path d="M55.7055 19.1795C54.9915 20.3374 55.7063 24.0035 56.0209 23.972C56.6379 23.9101 58.2815 15.002 55.7055 19.1795Z" fill="#1AC84B"/>
</svg>
