<?xml version="1.0" standalone="no"?>
<!DOCTYPE svg PUBLIC "-//W3C//DTD SVG 20010904//EN"
 "http://www.w3.org/TR/2001/REC-SVG-20010904/DTD/svg10.dtd">
<svg version="1.0" xmlns="http://www.w3.org/2000/svg"
 width="600.000000pt" height="400.000000pt" viewBox="0 0 600.000000 400.000000"
 preserveAspectRatio="xMidYMid meet">

<g transform="translate(0.000000,400.000000) scale(0.100000,-0.100000)"
fill="#000000" stroke="none">
<path d="M770 3980 c0 -5 5 -10 10 -10 6 0 10 5 10 10 0 6 -4 10 -10 10 -5 0
-10 -4 -10 -10z"/>
<path d="M440 3919 c0 -5 5 -7 10 -4 6 3 10 8 10 11 0 2 -4 4 -10 4 -5 0 -10
-5 -10 -11z"/>
<path d="M260 3891 c0 -5 7 -12 16 -15 22 -9 24 -8 24 9 0 8 -9 15 -20 15 -11
0 -20 -4 -20 -9z"/>
<path d="M110 3865 c0 -10 7 -15 18 -13 21 4 19 22 -2 26 -10 2 -16 -3 -16
-13z"/>
<path d="M5526 3588 c8 -39 69 -107 83 -93 6 6 7 29 4 52 -5 35 -11 46 -36 58
-47 23 -57 20 -51 -17z"/>
<path d="M1267 3510 c3 -11 9 -22 13 -25 5 -3 6 4 3 15 -3 11 -9 22 -13 25 -5
3 -6 -4 -3 -15z"/>
<path d="M5028 3381 c10 -28 70 -111 80 -111 4 0 8 11 7 24 0 25 -32 69 -45
61 -4 -2 -13 7 -20 20 -16 29 -33 34 -22 6z"/>
<path d="M2610 3313 c-19 -2 -44 -8 -55 -12 -11 -5 -46 -14 -78 -21 -49 -10
-62 -17 -78 -43 -10 -18 -18 -41 -18 -52 1 -16 2 -16 6 -3 2 9 10 18 17 21 14
6 10 -50 -5 -59 -5 -3 -9 -23 -9 -45 0 -26 -5 -42 -15 -45 -21 -9 -8 -24 21
-24 13 0 24 -4 24 -10 0 -18 63 -11 86 11 l22 20 41 -20 c88 -45 202 -17 241
60 44 84 26 167 -43 209 -33 20 -62 27 -53 11 3 -4 -6 -19 -20 -32 -21 -20
-27 -21 -34 -9 -6 9 -5 19 0 24 14 14 12 26 -2 24 -7 0 -29 -3 -48 -5z m-146
-100 c4 -9 3 -20 -2 -25 -11 -11 -36 17 -27 32 9 15 22 12 29 -7z m314 -45
c-6 -18 -28 -21 -28 -4 0 9 7 16 16 16 9 0 14 -5 12 -12z m-43 -38 c3 -5 -3
-10 -14 -10 -12 0 -21 5 -21 10 0 6 6 10 14 10 8 0 18 -4 21 -10z"/>
<path d="M3002 3208 c3 -7 16 -20 31 -28 21 -11 29 -12 38 -3 10 10 5 16 -24
28 -44 18 -50 19 -45 3z"/>
<path d="M3398 3153 c10 -4 10 -9 -3 -23 -15 -17 -13 -24 26 -101 23 -46 50
-95 60 -108 11 -13 19 -36 19 -51 0 -36 -47 -100 -105 -141 -32 -23 -44 -38
-39 -48 33 -83 64 -176 64 -192 0 -23 0 -23 92 -4 126 25 178 38 178 44 0 3
-4 12 -9 20 -8 12 -12 12 -25 2 -13 -11 -18 -6 -37 30 -12 24 -25 56 -30 71
-7 26 -6 28 22 28 22 0 29 5 29 20 0 30 14 25 64 -27 32 -32 50 -61 58 -90 6
-24 11 -43 12 -43 3 0 339 64 526 100 85 16 161 30 169 30 10 0 12 8 7 32 -3
18 -10 36 -14 40 -5 5 -55 1 -113 -9 -70 -12 -153 -18 -254 -17 -148 1 -152 1
-255 39 -58 20 -107 41 -110 44 -3 4 -16 15 -30 24 -75 52 -208 216 -251 310
-6 14 -20 22 -37 23 -15 1 -21 -1 -14 -3z m395 -507 c13 -10 17 -25 15 -52
l-3 -37 -22 42 c-33 61 -29 76 10 47z"/>
<path d="M4721 3143 c-12 -10 -23 -29 -26 -42 -4 -22 -30 -50 -48 -51 -4 0
-18 7 -30 15 -27 17 -60 4 -39 -17 6 -6 12 -25 12 -40 0 -29 15 -34 75 -28 33
3 139 52 158 73 56 63 -36 144 -102 90z"/>
<path d="M5146 3135 c-3 -9 31 -91 78 -188 214 -440 255 -523 271 -542 16 -19
16 -18 12 26 -3 29 -22 81 -52 140 -27 52 -62 123 -79 159 -17 36 -50 101 -74
145 -23 44 -63 121 -87 172 -47 97 -59 112 -69 88z"/>
<path d="M2340 3019 c0 -9 19 -29 63 -66 32 -27 37 -28 37 -8 0 16 12 20 23 8
4 -3 2 -12 -4 -20 -9 -10 -7 -13 7 -14 11 -1 22 -1 27 0 14 2 7 -27 -14 -53
-17 -21 -18 -26 -5 -26 9 0 22 10 30 23 18 27 37 129 27 140 -8 8 -62 -9 -71
-23 -3 -5 -31 4 -63 20 -31 15 -57 24 -57 19z"/>
<path d="M5030 2995 c0 -25 273 -592 278 -577 1 5 -16 45 -38 90 -22 46 -40
85 -40 87 0 3 -13 33 -30 67 -16 34 -30 66 -30 70 0 11 -57 131 -104 218 -21
38 -36 57 -36 45z"/>
<path d="M3950 2980 c0 -11 7 -20 15 -20 8 0 15 9 15 20 0 11 -7 20 -15 20 -8
0 -15 -9 -15 -20z"/>
<path d="M1651 2909 c-2 -26 46 -157 90 -247 49 -100 47 -127 -9 -187 -77 -82
-206 -185 -231 -185 -8 0 -24 -8 -35 -18 -12 -10 -48 -27 -81 -37 -33 -11 -62
-22 -65 -26 -3 -3 -38 -14 -78 -23 -40 -9 -81 -20 -90 -25 -9 -5 -48 -14 -87
-21 -38 -6 -77 -14 -85 -17 -39 -13 -316 -18 -489 -8 -86 5 -110 10 -142 31
-46 29 -69 32 -46 6 9 -9 15 -24 13 -32 -5 -23 -25 -70 -30 -70 -11 0 -34 57
-39 98 -4 35 -13 50 -50 82 -24 22 -53 56 -62 77 -28 59 -87 224 -92 261 -10
62 -18 40 -17 -46 0 -48 5 -96 11 -107 6 -11 19 -54 28 -95 9 -41 19 -86 22
-100 3 -14 14 -33 24 -43 11 -10 19 -25 19 -35 1 -18 30 -63 30 -46 1 5 10 -2
20 -15 11 -13 20 -18 20 -12 0 6 8 11 18 11 11 0 26 -16 40 -42 17 -34 22 -38
22 -20 0 21 3 23 30 17 18 -4 30 -3 30 4 0 6 -7 8 -15 5 -8 -4 -15 -1 -15 5 0
18 25 13 55 -10 14 -12 36 -23 48 -24 12 -1 25 -3 30 -4 4 0 7 -12 7 -25 0
-13 3 -31 6 -40 8 -22 44 -21 44 2 0 13 2 14 9 3 10 -15 28 -13 341 45 230 43
571 104 840 149 282 48 350 64 350 81 0 12 -5 15 -25 14 -3 -1 -13 6 -21 15
-9 8 -22 15 -30 15 -8 0 -19 11 -26 25 -6 13 -14 22 -19 20 -4 -3 -5 5 -1 17
l5 21 17 -21 17 -21 11 24 c21 45 56 2 77 -92 5 -27 10 -32 28 -28 12 3 159
30 327 60 309 56 491 92 497 98 1 2 -6 23 -18 46 -17 35 -24 42 -42 37 -90
-22 -368 -54 -427 -49 -123 11 -275 34 -322 49 -63 21 -154 80 -193 126 -16
18 -54 88 -86 156 -46 96 -62 122 -78 122 -11 0 -24 -7 -29 -17 -9 -14 -11
-13 -22 7 -7 13 -16 35 -21 49 -4 14 -8 19 -8 10z"/>
<path d="M4305 2910 c-8 -13 25 -13 45 0 12 8 9 10 -12 10 -15 0 -30 -4 -33
-10z"/>
<path d="M2422 2898 c5 -15 28 -23 28 -10 0 5 -7 13 -16 16 -10 4 -14 1 -12
-6z"/>
<path d="M4880 2905 c0 -13 72 -147 76 -142 6 5 -63 147 -71 147 -3 0 -5 -2
-5 -5z"/>
<path d="M5936 2820 c8 -31 42 -80 55 -80 5 0 9 8 9 18 -1 19 -23 52 -35 52
-4 0 -14 8 -22 18 -13 15 -13 15 -7 -8z"/>
<path d="M4750 2825 c0 -5 5 -17 10 -25 5 -8 10 -10 10 -5 0 6 -5 17 -10 25
-5 8 -10 11 -10 5z"/>
<path d="M4580 2775 c0 -22 29 -75 40 -75 14 0 12 15 -7 54 -19 38 -33 46 -33
21z"/>
<path d="M1107 2685 c-20 -28 -13 -31 33 -11 32 13 32 14 12 25 -26 14 -24 15
-45 -14z"/>
<path d="M2 2685 c0 -11 4 -31 8 -45 6 -20 8 -21 8 -5 0 11 -4 31 -8 45 -6 20
-8 21 -8 5z"/>
<path d="M3311 2639 c-1 -4 8 -35 19 -70 12 -35 22 -73 24 -84 2 -12 12 -21
25 -23 22 -3 21 -1 -12 65 -19 37 -39 79 -45 93 -6 14 -11 22 -11 19z"/>
<path d="M3221 2601 c-11 -7 -11 -16 1 -52 8 -24 12 -53 10 -63 -4 -18 -5 -18
-24 5 -20 24 -20 24 -15 2 4 -17 1 -23 -12 -23 -22 0 -51 31 -51 53 0 9 -5 17
-10 17 -6 0 -8 -11 -4 -25 4 -15 2 -25 -5 -25 -6 0 -11 6 -11 13 -1 35 -17 39
-65 18 -27 -12 -65 -24 -85 -27 -61 -10 -66 -16 -50 -66 7 -24 16 -46 19 -50
3 -3 69 7 146 23 77 16 166 33 199 39 32 5 61 11 63 14 5 5 -25 66 -33 66 -4
0 -4 -7 0 -15 3 -8 1 -15 -3 -15 -5 0 -20 27 -33 59 -17 45 -27 58 -37 52z"/>
<path d="M1464 2566 c-3 -8 -4 -20 -3 -27 5 -23 -12 -59 -26 -59 -9 0 -12 -6
-9 -15 4 -8 1 -15 -5 -15 -6 0 -8 -6 -5 -14 4 -9 -3 -13 -21 -13 -32 0 -39 -7
-28 -26 7 -13 15 -12 61 9 57 26 69 46 79 127 5 43 4 47 -16 47 -12 0 -24 -6
-27 -14z"/>
<path d="M1200 2510 c0 -5 5 -10 10 -10 6 0 10 5 10 10 0 6 -4 10 -10 10 -5 0
-10 -4 -10 -10z"/>
<path d="M1305 2381 c-5 -16 -19 -21 -69 -26 -47 -5 -71 -14 -92 -32 l-29 -25
35 7 c19 4 60 16 90 27 30 10 70 24 88 30 38 13 43 38 8 38 -16 0 -27 -7 -31
-19z"/>
<path d="M1 2297 c-1 -75 3 -95 24 -137 14 -27 25 -58 25 -69 0 -11 5 -23 11
-26 6 -4 14 -17 19 -29 21 -50 7 20 -34 179 l-44 170 -1 -88z"/>
<path d="M775 2250 c-18 -8 -17 -9 8 -9 16 -1 26 3 22 9 -3 6 -7 10 -8 9 -1 0
-11 -4 -22 -9z"/>
<path d="M5400 2212 c0 -12 71 -169 179 -397 32 -66 66 -141 77 -167 10 -27
22 -48 27 -48 4 0 7 -5 7 -12 0 -6 6 -19 13 -27 7 -9 19 -34 26 -56 19 -56
161 -348 167 -342 3 3 -15 47 -39 99 -67 140 -117 248 -117 253 0 3 -31 69
-69 148 -38 78 -113 234 -166 347 -101 212 -105 221 -105 202z"/>
<path d="M96 1985 c4 -8 8 -15 10 -15 2 0 4 7 4 15 0 8 -4 15 -10 15 -5 0 -7
-7 -4 -15z"/>
<path d="M282 1937 c2 -22 8 -37 16 -37 8 0 10 9 6 28 -11 44 -25 50 -22 9z"/>
<path d="M110 1912 c0 -23 5 -42 10 -42 7 0 8 14 4 38 -9 51 -14 53 -14 4z"/>
<path d="M3915 1920 c4 -6 -13 -10 -44 -10 -27 0 -53 -5 -56 -10 -4 -6 -15 -8
-26 -5 -11 4 -32 4 -48 0 -25 -5 -28 -10 -25 -43 l3 -37 -19 23 c-12 14 -29
22 -50 22 -17 0 -29 -4 -26 -8 2 -4 1 -14 -3 -21 -11 -18 -121 -17 -133 1 -5
9 -8 6 -8 -9 0 -12 -6 -24 -12 -26 -10 -4 -10 -6 0 -6 6 -1 12 -6 12 -12 0 -5
-4 -7 -10 -4 -5 3 -10 1 -10 -4 0 -6 4 -11 8 -11 16 0 72 -57 72 -73 0 -22 6
-21 33 4 30 29 227 122 312 149 39 12 79 25 90 30 17 7 17 9 3 9 -10 1 -18 7
-18 14 0 8 -12 19 -26 25 -14 7 -23 8 -19 2z"/>
<path d="M4044 1906 c-3 -9 -13 -16 -22 -16 -8 0 -13 -2 -11 -5 3 -2 35 1 72
7 75 12 79 19 12 25 -35 4 -46 1 -51 -11z"/>
<path d="M4165 1909 c-4 -5 24 -9 66 -9 40 0 70 2 68 4 -10 9 -129 14 -134 5z"/>
<path d="M3570 1846 c0 -2 7 -7 16 -10 8 -3 12 -2 9 4 -6 10 -25 14 -25 6z"/>
<path d="M4550 1840 c8 -5 20 -10 25 -10 6 0 3 5 -5 10 -8 5 -19 10 -25 10 -5
0 -3 -5 5 -10z"/>
<path d="M3342 1827 c12 -5 31 -13 41 -19 11 -5 22 -7 25 -4 3 3 0 6 -7 6 -7
0 -11 7 -8 14 5 12 -3 15 -35 13 -35 -1 -37 -2 -16 -10z"/>
<path d="M4615 1810 c10 -11 20 -20 23 -20 3 0 -3 9 -13 20 -10 11 -20 20 -23
20 -3 0 3 -9 13 -20z"/>
<path d="M2435 1669 c-77 -16 -180 -38 -230 -48 -76 -15 -85 -19 -60 -25 67
-15 112 -30 158 -53 l49 -23 93 75 c52 41 98 75 102 75 5 0 18 7 29 15 24 19
24 19 -141 -16z"/>
<path d="M1440 1476 c-30 -7 -88 -19 -127 -25 l-73 -13 28 -30 c49 -53 55 -53
119 -5 32 25 76 54 98 65 46 24 34 26 -45 8z"/>
<path d="M4806 1407 c-2 -6 -8 -27 -14 -46 -6 -19 -9 -38 -5 -44 3 -6 1 -7 -5
-3 -6 4 -16 -4 -23 -16 -6 -13 -31 -48 -55 -79 -40 -52 -42 -57 -29 -82 7 -14
15 -34 18 -44 4 -14 5 -13 6 5 0 12 5 22 10 22 5 0 12 -30 14 -67 6 -80 16
-133 27 -133 4 0 12 -11 18 -25 6 -14 18 -25 26 -25 36 0 177 53 215 80 36 26
40 34 35 58 -4 15 -15 39 -25 54 -11 14 -19 31 -19 37 0 5 -11 21 -25 35 -14
14 -25 33 -25 42 0 24 -111 232 -127 238 -8 3 -15 0 -17 -7z m-26 -145 c0 -9
11 -39 23 -67 13 -27 26 -68 30 -90 6 -37 5 -38 -8 -20 -8 11 -18 25 -24 31
-16 20 -41 73 -41 89 0 9 -4 13 -10 10 -14 -9 -13 31 2 54 14 22 28 18 28 -7z"/>
<path d="M350 1299 c-25 -4 -79 -13 -120 -18 -41 -5 -109 -17 -150 -25 -41 -9
-76 -16 -77 -16 -2 0 -3 -279 -3 -620 l0 -620 25 0 c16 0 25 6 25 15 0 9 7 18
15 21 8 4 15 16 16 28 0 11 9 39 19 61 l18 40 -4 -50 c-2 -27 -6 -65 -10 -82
-6 -33 -6 -33 32 -33 88 1 177 20 197 43 l19 22 -7 -23 c-6 -20 -4 -23 12 -19
10 3 54 11 98 17 44 6 141 23 215 36 74 14 162 29 195 35 33 5 89 16 125 24
36 9 74 16 85 15 11 0 40 4 65 10 25 5 108 21 185 35 77 15 178 35 225 47 94
22 128 29 275 55 83 16 101 22 111 41 16 31 22 36 20 15 -1 -22 24 -22 149 2
50 9 108 20 130 23 l40 7 3 58 c3 67 22 68 22 2 0 -24 4 -46 8 -49 5 -3 37 1
73 9 114 24 321 55 331 49 5 -3 16 0 24 7 8 6 37 12 63 13 27 1 47 4 45 7 -2
4 18 10 44 14 26 3 63 10 82 15 19 5 67 14 105 20 39 7 97 18 130 25 33 8 88
19 123 26 l62 12 0 38 c0 21 -4 40 -9 43 -13 9 -20 55 -7 50 6 -2 20 -31 30
-64 11 -33 20 -60 20 -60 57 14 224 43 346 60 81 11 164 27 295 55 33 7 110
23 170 35 190 39 187 38 172 60 -6 11 -17 20 -24 20 -8 0 -13 13 -13 30 0 17
-5 30 -11 30 -6 0 -9 7 -6 15 5 11 1 12 -18 5 -53 -20 -105 -51 -100 -59 3 -5
-3 -7 -14 -4 -10 2 -48 -5 -85 -16 -62 -19 -209 -42 -281 -44 -134 -4 -318 36
-384 82 -16 12 -32 21 -36 21 -4 0 -49 -40 -100 -88 -52 -49 -121 -103 -154
-120 -139 -74 -377 -132 -540 -132 -119 1 -237 28 -279 64 -13 12 -34 20 -47
18 -15 -2 -32 6 -47 23 l-25 26 -54 -46 c-149 -127 -316 -216 -486 -256 -137
-33 -331 -19 -448 32 -35 15 -81 49 -77 55 2 3 2 9 0 16 -2 6 -31 -13 -63 -42
-116 -102 -245 -176 -392 -227 -65 -22 -96 -26 -188 -27 -63 -1 -133 5 -163
13 -68 17 -151 57 -158 76 -4 8 -13 15 -21 15 -7 0 -24 10 -37 23 -31 29 -96
134 -108 172 -16 52 -16 210 -1 273 8 31 16 74 18 96 10 91 163 294 315 419
47 38 45 40 -30 26z"/>
<path d="M5910 1134 c0 -6 13 -40 30 -75 16 -35 29 -59 30 -52 0 6 -13 40 -30
75 -16 35 -30 58 -30 52z"/>
<path d="M4595 1100 c-8 -13 15 -24 27 -12 6 6 4 11 -6 15 -8 3 -18 2 -21 -3z"/>
<path d="M5010 1101 c0 -6 4 -11 8 -11 4 0 14 -16 21 -36 7 -19 15 -33 18 -30
7 6 -24 73 -37 81 -6 3 -10 1 -10 -4z"/>
<path d="M4545 1051 c-17 -15 -41 -33 -53 -40 -12 -7 -20 -16 -17 -21 3 -6 0
-8 -7 -5 -15 5 -61 -32 -70 -56 -4 -9 5 -35 18 -59 13 -23 24 -49 24 -57 0
-17 31 -15 105 7 22 6 61 13 86 16 48 6 144 32 121 33 -7 1 -17 12 -22 26 -5
14 -16 25 -24 25 -8 0 -18 9 -21 20 -4 13 -15 20 -31 20 -21 0 -24 4 -20 25 4
21 1 24 -21 23 -16 -2 -30 -12 -40 -31 -13 -26 -12 -31 6 -63 22 -36 27 -64
13 -64 -25 0 -61 28 -70 55 -16 43 -25 105 -15 105 12 1 90 70 78 70 -5 0 -24
-13 -40 -29z"/>
<path d="M4542 989 c2 -6 8 -10 13 -10 5 0 11 4 13 10 2 6 -4 11 -13 11 -9 0
-15 -5 -13 -11z"/>
<path d="M5800 953 c0 -14 102 -234 107 -230 5 6 -42 118 -75 182 -18 33 -32
55 -32 48z"/>
<path d="M5705 735 c9 -22 20 -49 25 -60 4 -12 30 -68 57 -125 27 -58 71 -151
98 -208 26 -56 50 -100 52 -98 4 4 -20 72 -39 113 -6 12 -8 29 -4 38 4 11 2
14 -6 9 -8 -5 -9 -2 -5 10 5 11 3 15 -5 10 -8 -5 -9 -1 -4 12 4 10 4 15 0 12
-11 -12 -54 61 -110 186 -29 66 -58 124 -65 130 -6 6 -3 -7 6 -29z"/>
<path d="M5921 690 c14 -31 19 -36 19 -24 0 6 -7 19 -16 30 -14 18 -14 18 -3
-6z"/>
<path d="M5941 645 c0 -5 13 -35 29 -65 16 -30 29 -50 29 -45 0 6 -13 35 -29
65 -16 30 -29 51 -29 45z"/>
<path d="M5275 539 c13 -28 28 -56 33 -61 15 -15 25 9 12 29 -9 15 -10 14 -5
-7 5 -21 4 -22 -5 -8 -6 10 -13 31 -15 48 -4 37 -12 50 -30 50 -11 0 -8 -12
10 -51z"/>
<path d="M5190 571 c0 -4 48 -116 106 -247 100 -228 138 -290 156 -261 4 7 1
13 -7 15 -20 4 -58 79 -51 98 4 10 2 12 -6 8 -8 -5 -9 -2 -5 10 4 9 3 15 -2
12 -9 -6 -32 57 -34 97 -1 16 -7 25 -14 23 -6 -3 -14 2 -17 10 -3 8 1 14 10
14 9 0 14 6 11 13 -2 6 -10 11 -16 10 -10 -3 -15 16 -12 43 1 7 -5 14 -14 18
-8 3 -15 14 -15 23 0 10 -7 28 -15 39 -8 12 -11 24 -8 28 3 3 1 6 -6 6 -8 0
-11 6 -7 17 4 9 1 20 -6 25 -17 10 -48 10 -48 -1z"/>
<path d="M5020 531 c0 -12 161 -365 172 -376 9 -10 -24 81 -43 117 -6 11 -8
26 -5 34 3 8 2 13 -3 10 -11 -7 -73 130 -76 169 -2 17 -3 36 -4 43 -1 13 -41
17 -41 3z m40 -36 c0 -5 -5 -3 -10 5 -5 8 -10 20 -10 25 0 6 5 3 10 -5 5 -8
10 -19 10 -25z"/>
<path d="M4970 513 c0 -15 -2 -16 -10 -3 -17 26 -10 -3 9 -39 15 -28 19 -31
25 -16 3 10 4 20 1 23 -3 3 -5 -1 -5 -9 0 -11 -2 -11 -10 1 -13 21 -12 33 2
24 8 -5 9 -1 5 12 -7 18 -6 18 9 -1 15 -18 16 -18 10 -2 -3 10 -6 21 -6 23 0
2 -7 4 -15 4 -8 0 -15 -8 -15 -17z"/>
<path d="M4880 510 c-19 -3 -35 -9 -35 -15 0 -14 57 -149 124 -295 32 -69 61
-133 65 -143 3 -10 11 -15 16 -12 7 4 9 -2 4 -19 -5 -20 -2 -26 10 -26 9 0 16
5 16 11 0 5 -5 7 -12 3 -8 -5 -9 -2 -5 9 8 20 -2 49 -13 42 -5 -3 -8 3 -7 14
0 10 -7 38 -17 62 -10 24 -22 53 -26 64 -8 21 -32 78 -56 130 -23 53 -64 158
-64 164 1 3 9 -4 19 -16 10 -12 22 -19 26 -15 5 4 5 -2 1 -13 -5 -15 -4 -17 4
-9 8 8 8 19 -2 40 -12 26 -17 29 -48 24z"/>
<path d="M4775 480 c3 -5 8 -10 11 -10 2 0 4 5 4 10 0 6 -5 10 -11 10 -5 0 -7
-4 -4 -10z"/>
<path d="M5011 475 c0 -5 6 -21 14 -35 8 -14 14 -20 14 -15 0 6 -6 21 -14 35
-8 14 -14 21 -14 15z"/>
<path d="M4810 461 c0 -6 4 -13 10 -16 6 -3 7 1 4 9 -7 18 -14 21 -14 7z"/>
<path d="M5340 451 c0 -6 4 -13 10 -16 6 -3 7 1 4 9 -7 18 -14 21 -14 7z"/>
<path d="M4670 445 c0 -5 5 -17 10 -25 5 -8 10 -10 10 -5 0 6 -5 17 -10 25 -5
8 -10 11 -10 5z"/>
<path d="M5320 444 c1 -12 79 -161 80 -152 0 8 -67 148 -75 156 -3 3 -5 1 -5
-4z"/>
<path d="M4935 431 c-8 -14 15 -58 30 -58 10 0 11 6 3 23 -6 13 -16 21 -21 17
-6 -4 -8 0 -4 10 7 18 2 23 -8 8z"/>
<path d="M5090 431 c0 -6 4 -13 10 -16 6 -3 7 1 4 9 -7 18 -14 21 -14 7z"/>
<path d="M4547 253 c105 -253 106 -254 111 -248 3 2 -3 25 -12 50 -10 24 -15
49 -12 54 4 5 -4 20 -16 32 -13 12 -17 19 -11 15 9 -5 11 -2 7 8 -3 9 -10 16
-16 16 -5 0 -7 4 -4 9 8 13 -4 42 -15 35 -5 -3 -10 1 -10 8 -5 56 -10 74 -23
84 -9 6 -13 13 -11 16 3 3 -3 26 -12 51 -11 31 -23 47 -34 47 -14 0 -3 -34 58
-177z"/>
<path d="M4990 425 c0 -5 5 -17 10 -25 5 -8 10 -10 10 -5 0 6 -5 17 -10 25 -5
8 -10 11 -10 5z"/>
<path d="M4380 409 c-98 -19 -94 -6 -44 -121 24 -57 48 -112 53 -123 5 -11 22
-53 38 -92 20 -52 33 -73 46 -73 22 0 21 8 -3 66 -12 26 -18 54 -16 61 4 9 1
11 -6 7 -8 -5 -9 -2 -5 10 4 9 3 15 -2 12 -5 -3 -11 0 -14 7 -38 94 -47 120
-38 112 5 -5 19 -32 30 -60 11 -27 20 -45 20 -38 1 7 -17 53 -39 103 -42 95
-53 141 -25 104 13 -17 14 -17 15 -1 0 19 20 24 20 5 0 -7 5 -6 13 4 6 9 19
18 27 21 23 8 -18 6 -70 -4z"/>
<path d="M5010 375 c0 -5 5 -17 10 -25 5 -8 10 -10 10 -5 0 6 -5 17 -10 25 -5
8 -10 11 -10 5z"/>
<path d="M4968 351 c7 -4 12 -13 10 -18 -3 -10 1 -13 17 -13 3 0 1 9 -5 20 -6
11 -16 20 -23 20 -9 0 -8 -3 1 -9z"/>
<path d="M4110 345 c0 -2 17 -44 38 -92 21 -48 53 -125 72 -171 18 -45 34 -81
37 -79 6 6 -131 347 -139 347 -5 0 -8 -2 -8 -5z"/>
<path d="M3933 303 c21 -72 116 -298 125 -301 9 -3 10 3 3 21 -5 14 -7 28 -4
31 4 3 1 6 -5 6 -6 0 -9 7 -6 15 4 8 1 15 -6 15 -6 0 -8 4 -5 10 3 6 2 10 -4
10 -6 0 -8 7 -5 15 4 8 1 15 -7 15 -7 0 -9 3 -6 7 4 3 3 11 -2 17 -4 6 -18 44
-31 84 -15 47 -28 72 -37 72 -10 0 -13 -6 -10 -17z"/>
<path d="M5041 310 c0 -15 38 -91 39 -79 0 4 -9 26 -20 50 -11 24 -19 37 -19
29z"/>
<path d="M3846 275 c13 -40 24 -50 18 -15 -8 45 9 30 26 -23 7 -21 14 -37 16
-34 2 2 -3 24 -12 50 -12 34 -20 45 -35 44 -14 -1 -17 -6 -13 -22z"/>
<path d="M3768 283 c-16 -2 -28 -7 -28 -10 0 -3 23 -66 52 -140 39 -101 56
-133 69 -133 16 0 17 4 8 33 -6 17 -17 46 -24 62 -36 84 -46 113 -51 149 -4
29 -3 29 12 10 14 -17 15 -17 10 -1 -3 10 -6 23 -6 28 0 5 -3 8 -7 8 -5 -1
-20 -4 -35 -6z"/>
<path d="M5021 255 c0 -5 11 -32 25 -60 13 -27 21 -39 18 -25 -7 29 -43 100
-43 85z"/>
<path d="M4440 241 c0 -6 4 -13 10 -16 6 -3 7 1 4 9 -7 18 -14 21 -14 7z"/>
<path d="M3552 228 c41 -118 85 -221 96 -225 27 -11 26 -4 -25 137 -12 36 -23
73 -23 83 0 12 -8 17 -26 17 -17 0 -25 -5 -22 -12z"/>
<path d="M3455 219 c-104 -19 -98 -6 -55 -116 29 -72 44 -99 58 -101 12 -2 21
4 24 15 6 25 -1 45 -15 36 -6 -4 -8 0 -4 10 4 10 2 16 -5 14 -11 -2 -33 72
-24 80 3 3 16 -17 30 -44 29 -55 32 -53 11 7 -21 60 -20 90 4 90 11 0 23 5 26
10 3 6 5 9 3 9 -2 -1 -25 -5 -53 -10z"/>
<path d="M5077 207 c-3 -8 1 -14 8 -14 7 0 11 6 8 14 -6 16 -10 16 -16 0z"/>
<path d="M3200 168 c-80 -16 -152 -31 -160 -33 -8 -2 -25 -4 -36 -4 -21 -1
-21 -1 4 -66 22 -54 30 -65 49 -65 23 0 23 1 8 30 -9 17 -13 35 -9 41 4 6 1
15 -6 19 -9 6 -10 12 -1 26 10 18 11 18 17 -5 l7 -23 12 22 12 23 7 -26 c6
-27 37 -31 44 -6 3 11 2 12 -6 1 -8 -11 -10 -11 -15 1 -8 22 23 15 35 -8 8
-13 7 -16 -1 -11 -15 10 -14 -15 4 -55 10 -25 15 -29 15 -14 l1 20 9 -20 c15
-34 11 0 -5 45 -16 46 -20 94 -7 86 5 -3 19 -37 33 -76 23 -67 25 -70 56 -70
31 0 32 1 26 32 -3 18 -12 44 -20 58 -7 14 -13 34 -12 45 0 17 2 17 11 -5 23
-52 38 -96 38 -112 0 -10 6 -18 14 -18 12 0 11 9 -4 52 -10 29 -16 55 -14 58
8 7 22 -20 36 -67 13 -45 29 -60 22 -20 -4 21 -4 21 6 -2 15 -34 24 -18 11 20
-6 17 -8 36 -4 42 4 6 1 7 -7 2 -10 -6 -12 -3 -8 13 4 12 3 22 -2 22 -4 0 -5
11 -2 25 2 14 0 25 -7 25 -5 0 -8 7 -5 15 4 8 5 15 3 14 -2 -1 -69 -14 -149
-31z m97 -40 c-3 -7 -5 -2 -5 12 0 14 2 19 5 13 2 -7 2 -19 0 -25z"/>
<path d="M3910 181 c0 -6 4 -13 10 -16 6 -3 7 1 4 9 -7 18 -14 21 -14 7z"/>
<path d="M5406 172 c-3 -5 1 -9 9 -9 8 0 12 4 9 9 -3 4 -7 8 -9 8 -2 0 -6 -4
-9 -8z"/>
<path d="M2940 116 c0 -2 7 -9 15 -16 12 -10 15 -10 15 4 0 9 -7 16 -15 16 -8
0 -15 -2 -15 -4z"/>
<path d="M2890 101 c0 -17 18 -21 24 -6 3 9 0 15 -9 15 -8 0 -15 -4 -15 -9z"/>
<path d="M2800 85 c-7 -9 -10 -18 -6 -22 3 -3 6 0 7 8 0 8 9 -5 19 -28 24 -53
54 -61 39 -11 -13 46 -11 56 9 61 9 3 1 5 -19 6 -22 1 -42 -5 -49 -14z"/>
<path d="M5876 86 c-20 -9 -25 -16 -16 -21 7 -4 21 1 33 14 24 24 23 24 -17 7z"/>
<path d="M3085 79 c-4 -6 -5 -12 -2 -15 2 -3 7 2 10 11 7 17 1 20 -8 4z"/>
<path d="M3980 85 c0 -5 5 -17 10 -25 5 -8 10 -10 10 -5 0 6 -5 17 -10 25 -5
8 -10 11 -10 5z"/>
<path d="M5646 77 c3 -10 9 -15 12 -12 3 3 0 11 -7 18 -10 9 -11 8 -5 -6z"/>
<path d="M5936 81 c-4 -5 3 -7 14 -4 23 6 26 13 6 13 -8 0 -17 -4 -20 -9z"/>
<path d="M2740 72 c0 -5 7 -17 16 -28 14 -17 15 -17 10 -1 -3 10 -6 23 -6 28
0 5 -4 9 -10 9 -5 0 -10 -4 -10 -8z"/>
<path d="M2880 50 c5 -19 14 -38 19 -43 5 -5 4 7 -3 27 -16 46 -28 59 -16 16z"/>
<path d="M3506 67 c3 -10 9 -15 12 -12 3 3 0 11 -7 18 -10 9 -11 8 -5 -6z"/>
<path d="M2680 60 c0 -8 5 -22 10 -30 9 -13 10 -13 10 0 0 8 -5 22 -10 30 -9
13 -10 13 -10 0z"/>
<path d="M2712 44 c7 -15 14 -21 16 -15 5 16 -5 41 -17 41 -7 0 -6 -10 1 -26z"/>
<path d="M5825 60 c3 -5 11 -10 16 -10 6 0 7 5 4 10 -3 6 -11 10 -16 10 -6 0
-7 -4 -4 -10z"/>
<path d="M2610 56 c0 -26 23 -56 43 -56 20 0 23 4 19 30 -4 25 -9 30 -33 30
-16 0 -29 -2 -29 -4z"/>
<path d="M3095 49 c-4 -6 -5 -12 -2 -15 2 -3 7 2 10 11 7 17 1 20 -8 4z"/>
<path d="M5970 35 c13 -14 26 -25 28 -25 3 0 -5 11 -18 25 -13 14 -26 25 -28
25 -3 0 5 -11 18 -25z"/>
<path d="M2460 24 l-105 -23 120 2 c116 2 120 3 123 25 4 27 2 27 -138 -4z"/>
<path d="M3131 40 c-1 -18 16 -46 23 -40 2 3 -2 16 -9 30 -8 15 -14 19 -14 10z"/>
<path d="M5360 46 c0 -2 7 -7 16 -10 8 -3 12 -2 9 4 -6 10 -25 14 -25 6z"/>
<path d="M5560 38 c0 -9 8 -22 18 -29 16 -13 16 -13 2 5 -8 11 -13 21 -12 23
2 3 1 7 -2 11 -3 3 -6 -2 -6 -10z"/>
<path d="M5240 30 c0 -5 5 -10 11 -10 5 0 7 5 4 10 -3 6 -8 10 -11 10 -2 0 -4
-4 -4 -10z"/>
<path d="M5673 33 c9 -2 25 -2 35 0 9 3 1 5 -18 5 -19 0 -27 -2 -17 -5z"/>
<path d="M3500 21 c0 -6 4 -13 10 -16 6 -3 7 1 4 9 -7 18 -14 21 -14 7z"/>
<path d="M5643 15 c0 -8 4 -15 9 -15 4 0 8 4 8 9 0 6 -4 12 -8 15 -5 3 -9 -1
-9 -9z"/>
<path d="M5385 10 c3 -5 8 -10 11 -10 2 0 4 5 4 10 0 6 -5 10 -11 10 -5 0 -7
-4 -4 -10z"/>
<path d="M5498 3 c7 -3 16 -2 19 1 4 3 -2 6 -13 5 -11 0 -14 -3 -6 -6z"/>
</g>
</svg>
